<?xml version="1.0" encoding="utf-8"?>
<!-- Generator: Adobe Illustrator 16.0.0, SVG Export Plug-In . SVG Version: 6.00 Build 0)  -->
<!DOCTYPE svg PUBLIC "-//W3C//DTD SVG 1.1//EN" "http://www.w3.org/Graphics/SVG/1.1/DTD/svg11.dtd">
<svg version="1.1" id="图层_1" xmlns="http://www.w3.org/2000/svg" xmlns:xlink="http://www.w3.org/1999/xlink" x="0px" y="0px"
	 width="550px" height="550px" viewBox="0 0 550 550" enable-background="new 0 0 550 550" xml:space="preserve">
<g>
	<path fill="#E85A5A" d="M284.997,426.318c69.84,0,127.477-46.011,134.447-104.803H150.551
		C157.521,380.308,215.158,426.318,284.997,426.318z"/>
	<path fill="#72C6C8" d="M284.997,24.2c-138.292,0-250.8,112.508-250.8,250.8c0,138.292,112.508,250.8,250.8,250.8
		c138.291,0,250.8-112.508,250.8-250.8C535.797,136.708,423.288,24.2,284.997,24.2z M186.473,160.172
		c33.339,0.474,60.156,27.291,60.63,60.63c0.22,15.484-23.78,15.463-24,0c-0.142-9.942-3.842-19.392-11.194-26.362
		c-6.795-6.439-15.893-10.404-25.436-10.269c-20.229,0.287-36.343,16.402-36.631,36.63c-0.219,15.463-24.22,15.484-24,0
		C126.306,188.176,153.131,159.698,186.473,160.172z M444.151,309.516c0,77.639-71.396,140.803-159.154,140.803
		c-87.759,0-159.155-63.164-159.155-140.803v-12h318.31V309.516z M420.151,220.802c-0.141-9.942-3.842-19.392-11.194-26.362
		c-6.794-6.439-15.892-10.404-25.436-10.269c-20.228,0.287-36.343,16.402-36.63,36.63c-0.221,15.463-24.221,15.484-24,0
		c0.463-32.626,27.289-61.104,60.63-60.63c33.339,0.474,60.157,27.291,60.63,60.63C444.372,236.286,420.372,236.265,420.151,220.802
		z"/>
	<path fill="#474441" d="M139.842,220.802c0.288-20.228,16.402-36.343,36.631-36.63c9.543-0.136,18.641,3.829,25.436,10.269
		c7.353,6.97,11.053,16.419,11.194,26.362c0.22,15.463,24.22,15.484,24,0c-0.474-33.34-27.291-60.157-60.63-60.63
		c-33.342-0.474-60.167,28.004-60.631,60.63C115.622,236.286,139.623,236.265,139.842,220.802z"/>
	<path fill="#474441" d="M469.31,80.688C417.407,28.785,348.399,0.2,274.997,0.2c-73.401,0-142.41,28.584-194.313,80.487
		C28.781,132.59,0.197,201.599,0.197,275c0,73.402,28.584,142.41,80.486,194.313c51.903,51.902,120.912,80.486,194.313,80.486
		c73.402,0,142.41-28.584,194.312-80.486C521.213,417.41,549.797,348.402,549.797,275C549.797,201.599,521.213,132.59,469.31,80.688
		z M274.997,525.8c-138.292,0-250.8-112.508-250.8-250.8c0-138.292,112.508-250.8,250.8-250.8c138.291,0,250.8,112.508,250.8,250.8
		C525.797,413.292,413.288,525.8,274.997,525.8z"/>
	<path fill="#474441" d="M115.842,309.516c0,77.639,71.396,140.803,159.155,140.803c87.758,0,159.154-63.164,159.154-140.803v-12
		h-318.31V309.516z M409.444,321.516c-6.971,58.792-64.607,104.803-134.447,104.803c-69.839,0-127.476-46.011-134.446-104.803
		H409.444z"/>
	<path fill="#474441" d="M373.521,160.172c-33.341-0.474-60.167,28.004-60.63,60.63c-0.221,15.484,23.779,15.463,24,0
		c0.287-20.228,16.402-36.343,36.63-36.63c9.544-0.136,18.642,3.829,25.436,10.269c7.353,6.97,11.054,16.419,11.194,26.362
		c0.221,15.463,24.221,15.484,24,0C433.679,187.462,406.86,160.646,373.521,160.172z"/>
</g>
</svg>
